<svg width="23" height="24" viewBox="0 0 23 24" fill="none" xmlns="http://www.w3.org/2000/svg">
<path fill-rule="evenodd" clip-rule="evenodd" d="M14.9516 15.1965L18.1292 18.5183C18.2374 18.6313 18.234 18.8115 18.1213 18.9208C18.0664 18.9736 17.9958 19 17.9249 19C17.8504 19 17.7762 18.9706 17.7207 18.9125L14.5328 15.5802C13.5027 16.4381 12.1811 16.9552 10.741 16.9552C7.46029 16.9552 4.7915 14.2738 4.7915 10.978C4.7915 7.6814 7.46029 4.99997 10.741 4.99997C14.0217 4.99997 16.6905 7.6814 16.6905 10.978C16.6905 12.6229 16.0253 14.114 14.9516 15.1965ZM5.35791 10.9779C5.35791 13.9601 7.77257 16.386 10.7408 16.386C13.7088 16.386 16.1237 13.9601 16.1237 10.9779C16.1237 7.99494 13.709 5.56906 10.7408 5.56906C7.77257 5.56906 5.35791 7.99494 5.35791 10.9779Z" fill="#9C9C9C"/>
<path d="M18.1292 18.5183L17.7679 18.8639L17.768 18.8639L18.1292 18.5183ZM14.9516 15.1965L14.5966 14.8444L14.2536 15.1902L14.5903 15.5421L14.9516 15.1965ZM18.1213 18.9208L18.4677 19.2814L18.4693 19.2798L18.1213 18.9208ZM17.7207 18.9125L18.082 18.5669L18.082 18.5669L17.7207 18.9125ZM14.5328 15.5802L14.8941 15.2346L14.5715 14.8973L14.2128 15.196L14.5328 15.5802ZM18.4905 18.1726L15.3129 14.8509L14.5903 15.5421L17.7679 18.8639L18.4905 18.1726ZM18.4693 19.2798C18.779 18.9796 18.7891 18.4847 18.4905 18.1726L17.768 18.8639C17.6857 18.778 17.6891 18.6434 17.7733 18.5618L18.4693 19.2798ZM17.9249 19.5C18.1204 19.5 18.3164 19.4267 18.4677 19.2814L17.7749 18.5603C17.8163 18.5205 17.8711 18.5 17.9249 18.5V19.5ZM17.3594 19.2581C17.5124 19.4182 17.7187 19.5 17.9249 19.5V18.5C17.9822 18.5 18.04 18.523 18.082 18.5669L17.3594 19.2581ZM14.1715 15.9258L17.3594 19.2582L18.082 18.5669L14.8941 15.2346L14.1715 15.9258ZM10.741 17.4552C12.3031 17.4552 13.7368 16.8938 14.8528 15.9644L14.2128 15.196C13.2687 15.9823 12.0591 16.4552 10.741 16.4552V17.4552ZM4.2915 10.978C4.2915 14.5477 7.18194 17.4552 10.741 17.4552V16.4552C7.73863 16.4552 5.2915 13.9998 5.2915 10.978H4.2915ZM10.741 4.49997C7.1819 4.49997 4.2915 7.40751 4.2915 10.978H5.2915C5.2915 7.95529 7.73867 5.49997 10.741 5.49997V4.49997ZM17.1905 10.978C17.1905 7.40751 14.3001 4.49997 10.741 4.49997V5.49997C13.7433 5.49997 16.1905 7.95529 16.1905 10.978H17.1905ZM15.3065 15.5486C16.4691 14.3765 17.1905 12.7604 17.1905 10.978H16.1905C16.1905 12.4853 15.5815 13.8514 14.5966 14.8444L15.3065 15.5486ZM10.7408 15.886C8.05091 15.886 5.85791 13.6862 5.85791 10.9779H4.85791C4.85791 14.2341 7.49423 16.886 10.7408 16.886V15.886ZM15.6237 10.9779C15.6237 13.6862 13.4305 15.886 10.7408 15.886V16.886C13.9871 16.886 16.6237 14.2341 16.6237 10.9779H15.6237ZM10.7408 6.06906C13.4306 6.06906 15.6237 8.26884 15.6237 10.9779H16.6237C16.6237 7.72104 13.9874 5.06906 10.7408 5.06906V6.06906ZM5.85791 10.9779C5.85791 8.26884 8.05095 6.06906 10.7408 6.06906V5.06906C7.49419 5.06906 4.85791 7.72104 4.85791 10.9779H5.85791Z" fill="#9C9C9C"/>
</svg>
